# xmcd CD database file
#
# Track frame offsets:
#	150
#	2675
#	23187
#	41717
#
# Disc length: 827 seconds
#
# Revision: 0
# Processed by: cddbd v1.5.1PL0 Copyright (c) Steve Scherf et al.
# Submitted via: CDex 1.50
#
DISCID=26033904
DTITLE=米本千珠 - センチメンタルジャーニー 松岡千恵_風にのせたラヴ・ソング
DYEAR=1900
DGENRE=Anime
TTITLE0=風にのせたラヴ・ソング〜Prologue〜
TTITLE1=風にのせたラヴ・ソング
TTITLE2=My sweet memories〜風にのせたラヴ・ソング〜
TTITLE3=風にのせたラヴ・ソング(オリジナル・カラオケ)
EXTD=
EXTT0=
EXTT1=
EXTT2=
EXTT3=
PLAYORDER=
